<?xml version="1.0" encoding="UTF-8"?>
<svg id="_Слой_3" data-name="Слой_3" xmlns="http://www.w3.org/2000/svg" viewBox="0 0 1003.65 1001.74">
  <defs>
    <style>
      .cls-1 {
        fill: #9dc183;
      }

      .cls-2 {
        fill: #f0a868;
      }

      .cls-3 {
        fill: #fff;
      }

      .cls-4 {
        fill: #fff2d2;
      }
    </style>
  </defs>
  <path class="cls-2" d="M674.71,579.47c87.13-147.5-13.2-276.91-28.96-293.99,39.42-36.79,23.91-99.07,19.45-110.37,3.42-6.83,13.93-26.8,13.4-120.89-9.2,3.42-64.38,24.7-98.28,41.52-20.76-12.61-90.93-5.26-107.22,0-8.93-8.67-50.46-27.86-99.6-41.52,0,0,3.15,80.94,19.97,117.73-21.02,46.25-1.05,88.3,19.97,112.48-78.84,65.17-66.22,198.67-66.22,198.67,0,0-7.36,1.05-30.48-8.41-56.76-54.66,28.38-148.22,31.54-156.63,5.96-9.11,10.86-41.7-3.15-66.22-10.51-22.43-41.35-74.63-73.58-72.53-25.58,0-44.15,25.93-28.38,48.35,3.5,8.41,42.05,32.59,50.46,53.61,9.11,16.47-38.89,59.57-48.35,95.66-9.46,36.09,5.26,111.42,37.38,139.81,32.12,28.38,83.51,25.23,83.51,25.23,0,0,3.15,17.87,16.36,37.5"/>
  <ellipse class="cls-3" cx="528.63" cy="619.05" rx="245.98" ry="53.26"/>
  <circle class="cls-1" cx="275.03" cy="737.49" r="94.61"/>
  <circle class="cls-4" cx="275.03" cy="737.49" r="65.87"/>
  <path class="cls-1" d="M774.63,619.05s55.95,361.6-246,361.6-246-361.6-246-361.6c0,0,74.17,59.06,246,52.36,171.83-6.7,246-52.36,246-52.36Z"/>
  <path class="cls-3" d="M528.6,565.79c-8.11-14.21-13.51-30.19-14.38-46.62,0,0-.16-2.48-.16-2.48v-2.48c-.1-2.77.18-7.13.4-9.95.16-1.17.69-5.18.84-6.18.41-1.93.81-4.22,1.26-6.12,1.83-7.29,4.38-14.42,8.06-21.03,3.17-5.42,6.21-11.16,8.13-17.15,3.54-10.4,5.16-21.58,5-32.56-.22-6.2-.9-12.67-2.27-18.71-.42-1.48-1.33-5.39-1.89-6.81-.39-1.09-1.16-3.35-1.54-4.45-.88-2.18-1.87-4.32-2.82-6.47-3.85-7.13-8.06-14.41-10.86-22.05-9.94-26.93-12.84-61.21,3.82-86.03,1.93-2.66,4.09-5.13,6.44-7.38-12.89,14.76-15.81,35.47-14.26,54.4,1.6,19.09,7.53,37.75,17.56,54.09,2.46,4.23,4.81,9.1,6.38,13.71,2.27,6.14,3.9,13.07,4.66,19.56,1.83,14.91.17,30.4-4.87,44.56-2.15,6.23-5.45,12.24-8.91,17.85-16.36,28.17-14.05,63.35-.59,92.28h0Z"/>
  <g>
    <path class="cls-3" d="M372.46,848.78c2.69,0,4.79-.07,6.32-.2,1.52-.13,2.62-.58,3.29-1.34.67-.76,1.08-1.93,1.21-3.49.13-1.57.2-3.83.2-6.79v-71.49l-1.75-1.75h-9.27v-2.28h27.01l38.97,63.96v-50.53c0-2.87-.07-5.06-.2-6.58-.13-1.52-.47-2.62-1.01-3.29-.54-.67-1.32-1.05-2.35-1.14-1.03-.09-2.44-.13-4.23-.13h-2.96v-2.28h24.32v2.28h-3.09c-1.79,0-3.22.05-4.3.13-1.08.09-1.88.47-2.42,1.14-.54.67-.87,1.77-1.01,3.29-.13,1.52-.2,3.72-.2,6.58v76.86h-6.72l-48.24-79.82v62.75c0,3.58.04,6.34.13,8.26.09,1.93.47,3.31,1.14,4.17.67.85,1.77,1.34,3.29,1.48,1.52.13,3.72.2,6.58.2v2.28h-24.73v-2.28Z"/>
    <path class="cls-3" d="M536.53,763.72h-2.15c-1.79,0-3.25.05-4.37.13-1.12.09-2.01.47-2.69,1.14-.67.67-1.12,1.77-1.34,3.29-.22,1.52-.34,3.67-.34,6.45v45.82c0,11.65-2.35,19.96-7.05,24.93s-11.76,7.46-21.16,7.46c-2.96,0-6.2-.22-9.74-.67-3.54-.45-6.9-1.36-10.08-2.75-3.18-1.39-5.96-3.34-8.33-5.85-2.37-2.51-3.83-5.82-4.37-9.94-.18-.98-.27-2.24-.27-3.76v-66.25h-8.47v-2.28h34v2.28h-8.6v57.92c0,4.12.25,7.91.74,11.35.49,3.45,1.43,6.43,2.82,8.94,1.39,2.51,3.29,4.48,5.71,5.91,2.42,1.43,5.51,2.15,9.27,2.15,4.12,0,7.64-.74,10.55-2.22,2.91-1.48,5.24-3.58,6.99-6.32,1.75-2.73,3.02-6.05,3.83-9.94.81-3.9,1.21-8.22,1.21-12.97v-43.81c0-2.87-.16-5.06-.47-6.58-.31-1.52-.83-2.64-1.55-3.36-.72-.72-1.5-1.12-2.35-1.21-.85-.09-1.64-.13-2.35-.13s-1.52.05-2.42.13c-.45,0-.92.02-1.41.07-.49.05-1.05.07-1.68.07v-2.28h26.07v2.28Z"/>
    <path class="cls-3" d="M563.27,848.78h8.2v2.28h-30.37v-2.28h7.39v-85.06h-7.39v-2.28h38.84c2.96,0,5.87.36,8.73,1.08,2.87.72,5.4,1.9,7.59,3.56,2.19,1.66,3.98,3.85,5.38,6.58,1.39,2.73,2.08,6.16,2.08,10.28,0,3.14-.47,5.87-1.41,8.2-.94,2.33-2.22,4.32-3.83,5.98-1.61,1.66-3.49,3.02-5.64,4.1s-4.44,1.88-6.85,2.42v1.48c3.76.99,6.7,2.58,8.8,4.77,2.1,2.2,3.69,4.68,4.77,7.46,1.08,2.78,1.75,5.71,2.02,8.8s.45,6.03.54,8.8c.09,1.97.2,3.83.34,5.58.13,1.75.38,3.27.74,4.57.36,1.3.89,2.33,1.61,3.09.72.76,1.7,1.14,2.96,1.14.81,0,1.57-.11,2.28-.34.72-.22,1.43-.47,2.15-.74.09,0,.18-.04.27-.13l.81,2.02c-1.52.72-3.02,1.21-4.5,1.48-1.48.27-2.98.4-4.5.4-3.94,0-7.03-.58-9.27-1.75-2.24-1.16-3.96-2.77-5.17-4.84-1.21-2.06-2.02-4.52-2.42-7.39-.4-2.87-.74-6.05-1.01-9.54-.09-1.08-.18-2.19-.27-3.36-.09-1.16-.22-2.37-.4-3.63-.45-3.85-1.37-6.85-2.76-9-1.39-2.15-3.09-3.74-5.11-4.77-2.01-1.03-4.28-1.66-6.79-1.88-2.51-.22-5.11-.34-7.79-.34v43.27ZM563.27,763.72v39.64h4.3c2.51,0,4.99-.36,7.46-1.08,2.46-.72,4.64-1.86,6.52-3.43,1.88-1.57,3.4-3.58,4.57-6.05,1.16-2.46,1.75-5.49,1.75-9.07,0-4.03-.54-7.34-1.61-9.94-1.08-2.6-2.55-4.64-4.43-6.11-1.88-1.48-4.08-2.51-6.58-3.09-2.51-.58-5.2-.87-8.06-.87h-3.9Z"/>
    <path class="cls-3" d="M641.61,848.78h8.2v2.28h-30.37v-2.28h7.39v-85.06h-7.39v-2.28h38.84c2.96,0,5.87.36,8.73,1.08,2.87.72,5.4,1.9,7.59,3.56,2.19,1.66,3.98,3.85,5.37,6.58,1.39,2.73,2.08,6.16,2.08,10.28,0,3.14-.47,5.87-1.41,8.2-.94,2.33-2.22,4.32-3.83,5.98-1.61,1.66-3.49,3.02-5.64,4.1s-4.44,1.88-6.85,2.42v1.48c3.76.99,6.7,2.58,8.8,4.77,2.1,2.2,3.69,4.68,4.77,7.46,1.08,2.78,1.75,5.71,2.02,8.8s.45,6.03.54,8.8c.09,1.97.2,3.83.34,5.58.13,1.75.38,3.27.74,4.57.36,1.3.89,2.33,1.61,3.09.72.76,1.7,1.14,2.96,1.14.81,0,1.57-.11,2.28-.34.72-.22,1.43-.47,2.15-.74.09,0,.18-.04.27-.13l.81,2.02c-1.52.72-3.02,1.21-4.5,1.48-1.48.27-2.98.4-4.5.4-3.94,0-7.03-.58-9.27-1.75-2.24-1.16-3.96-2.77-5.17-4.84-1.21-2.06-2.02-4.52-2.42-7.39-.4-2.87-.74-6.05-1.01-9.54-.09-1.08-.18-2.19-.27-3.36-.09-1.16-.23-2.37-.4-3.63-.45-3.85-1.37-6.85-2.75-9-1.39-2.15-3.09-3.74-5.11-4.77-2.02-1.03-4.28-1.66-6.79-1.88-2.51-.22-5.11-.34-7.79-.34v43.27ZM641.61,763.72v39.64h4.3c2.51,0,4.99-.36,7.46-1.08,2.46-.72,4.64-1.86,6.52-3.43,1.88-1.57,3.4-3.58,4.57-6.05,1.16-2.46,1.75-5.49,1.75-9.07,0-4.03-.54-7.34-1.61-9.94-1.08-2.6-2.55-4.64-4.44-6.11-1.88-1.48-4.08-2.51-6.58-3.09-2.51-.58-5.2-.87-8.06-.87h-3.9Z"/>
  </g>
</svg>